<?xml version="1.0" standalone="no"?>
<!DOCTYPE svg PUBLIC "-//W3C//DTD SVG 20010904//EN"
 "http://www.w3.org/TR/2001/REC-SVG-20010904/DTD/svg10.dtd">
<svg version="1.0" xmlns="http://www.w3.org/2000/svg"
 width="512.000000pt" height="512.000000pt" viewBox="0 0 512.000000 512.000000"
 preserveAspectRatio="xMidYMid meet">
<metadata>
Created by potrace 1.11, written by Peter Selinger 2001-2013
</metadata>
<g transform="translate(0.000000,512.000000) scale(0.100000,-0.100000)"
fill="#000000" stroke="none">
<path d="M1925 5043 c-244 -50 -437 -233 -507 -480 -21 -75 -22 -96 -22 -538
l-1 -460 -45 -2 c-25 -2 -202 -4 -395 -6 -388 -4 -394 -5 -533 -74 -178 -90
-320 -285 -350 -483 -6 -40 -9 -487 -8 -1140 2 -975 4 -1080 19 -1133 58 -199
190 -355 369 -436 124 -57 155 -60 598 -61 229 0 400 3 395 8 -6 5 -48 38 -95
73 -47 35 -129 106 -183 159 l-99 95 -201 1 c-159 1 -211 5 -245 17 -99 37
-173 114 -207 212 -16 46 -17 132 -17 1100 0 971 1 1054 17 1100 24 70 70 130
129 169 83 54 111 60 328 61 l196 0 99 95 c154 147 287 244 473 343 l85 46 5
383 5 383 28 57 c35 72 110 140 185 169 56 21 67 21 602 21 300 0 558 -2 574
-5 100 -20 209 -114 245 -213 20 -52 21 -76 21 -427 l0 -372 40 -17 c59 -25
234 -131 315 -191 87 -64 129 -101 225 -196 l75 -74 200 -2 c220 -2 263 -11
341 -67 68 -49 117 -129 130 -213 4 -28 7 -511 7 -1075 -1 -947 -2 -1029 -18
-1075 -23 -66 -67 -126 -121 -164 -80 -58 -109 -64 -330 -65 l-201 -1 -108
-103 c-59 -56 -146 -130 -193 -165 l-86 -62 385 -3 c234 -1 411 2 453 8 76 12
189 55 252 97 150 101 265 274 291 440 9 59 10 2173 1 2228 -43 250 -232 460
-479 530 -80 22 -103 24 -494 24 l-350 1 1 441 c2 465 -2 515 -46 632 -31 82
-110 196 -178 256 -71 64 -215 136 -307 154 -103 21 -1169 20 -1270 0z"/>
<path d="M2303 4593 c-5 -1 -53 -3 -108 -6 -82 -3 -110 -9 -156 -30 -144 -69
-228 -223 -208 -383 19 -150 149 -288 292 -309 26 -4 233 -7 460 -7 463 -1
461 -1 566 76 174 128 190 398 34 551 -56 53 -135 93 -204 101 -47 5 -656 12
-676 7z"/>
<path d="M2447 3724 c-1 -1 -29 -5 -62 -7 -685 -60 -1289 -522 -1538 -1177
-35 -91 -70 -211 -82 -275 -2 -16 -7 -41 -10 -55 -28 -140 -28 -476 1 -635 18
-105 60 -253 89 -320 7 -16 16 -41 20 -55 8 -26 68 -149 103 -212 169 -298
446 -564 752 -720 79 -40 102 -51 201 -91 251 -102 650 -139 949 -88 573 98
1066 466 1330 992 87 172 154 393 175 575 4 33 9 70 11 84 6 35 5 267 -1 315
-3 22 -7 60 -10 85 -42 352 -227 741 -484 1013 -33 35 -153 144 -212 192 -61
49 -206 139 -305 189 -255 127 -503 186 -807 191 -64 1 -118 0 -120 -1z m338
-348 c17 -4 55 -11 85 -17 159 -32 371 -122 518 -220 525 -351 776 -996 623
-1602 -170 -674 -769 -1141 -1461 -1139 -67 0 -184 10 -210 17 -8 3 -33 7 -55
9 -101 13 -298 82 -425 149 -596 318 -905 989 -759 1651 110 501 485 915 984
1089 55 19 103 35 108 35 4 0 20 3 35 6 58 13 79 17 132 22 30 4 57 8 59 10 7
6 331 -3 366 -10z"/>
<path d="M2607 3094 c-1 -1 -56 -4 -122 -7 -160 -7 -295 -41 -443 -110 -103
-49 -227 -135 -314 -220 -174 -169 -287 -372 -344 -622 -25 -109 -25 -366 0
-479 51 -238 160 -439 326 -605 576 -576 1534 -431 1914 291 89 170 130 338
131 538 0 187 -14 272 -72 433 -95 266 -311 510 -570 645 -91 47 -263 107
-338 117 -100 14 -165 21 -168 19z m122 -558 c468 -125 648 -692 338 -1067
-123 -148 -287 -227 -487 -234 -120 -4 -203 13 -310 64 -280 133 -431 461
-351 764 50 190 175 339 358 429 134 65 307 82 452 44z"/>
</g>
</svg>
